<?xml version="1.0" encoding="utf-8"?>
<!-- Generator: Adobe Illustrator 24.0.3, SVG Export Plug-In . SVG Version: 6.00 Build 0)  -->
<svg version="1.1" id="Layer_1" xmlns="http://www.w3.org/2000/svg" xmlns:xlink="http://www.w3.org/1999/xlink" x="0px" y="0px"
	 viewBox="0 0 320 320" style="enable-background:new 0 0 320 320;" xml:space="preserve">
<style type="text/css">
	.st0{fill:#660099;}
	.st1{fill:#8533AD;}
	.st2{fill:#C299D6;}
	.st3{fill:#321A4C;}
	.st4{fill:#956CAD;}
	.st5{fill:#33A14A;}
	.st6{fill:#99CC33;}
	.st7{fill:#2D4891;}
	.st8{fill:#0066CC;}
</style>
<path class="st0" d="M195.9,2.1H95.6C81,2.2,69.1,14.1,69.1,28.7l0.1,263.6c0,14.7,11.9,26.6,26.6,26.6h100.3
	c14.7,0,26.6-11.9,26.6-26.6l-0.2-263.6C222.5,14,210.5,2.1,195.9,2.1z"/>
<path class="st1" d="M205.9,1.9H105.6C91,1.9,79,13.8,79,28.4L79.1,292c0,14.7,11.9,26.6,26.6,26.6H206c14.7,0,26.6-11.9,26.6-26.6
	l-0.1-263.6C232.5,13.7,220.6,1.9,205.9,1.9z"/>
<path class="st2" d="M204,13.7h-9.9c-1.6,0-2.9,1.3-2.9,2.9v4.1c0,3.2-2.6,5.6-5.6,5.6h-59.8c-3.2,0-5.6-2.6-5.6-5.6v-4.1
	c0-1.6-1.3-2.9-2.9-2.9h-9.9c-10.8,0-19.6,8.8-19.6,19.6l0.1,253.9c0,10.8,8.8,19.6,19.6,19.6h96.6c10.8,0,19.6-8.8,19.6-19.6
	l-0.1-253.9C223.6,22.4,214.9,13.7,204,13.7z"/>
<path class="st2" d="M146.8,19h16.6c0.4,0,0.7-0.3,0.7-0.7c0-0.4-0.3-0.7-0.7-0.7h-16.6c-0.4,0-0.7,0.3-0.7,0.7S146.4,19,146.8,19z"
	/>
<path class="st2" d="M167.1,19h2.1c0.4,0,0.7-0.3,0.7-0.7c0-0.4-0.3-0.7-0.7-0.7h-2.1c-0.4,0-0.7,0.3-0.7,0.7
	C166.4,18.7,166.7,19,167.1,19z"/>
<path class="st3" d="M232.5,106.1h-67.8c-4,0-7.9,1.7-10.6,4.7l-48.2,53c-5,5.4-5,13.9,0,19.3l48.2,53c2.7,3,6.6,4.7,10.6,4.7h67.8
	V106.1z"/>
<path class="st4" d="M223.7,106.1h-58.8c-4,0-7.9,1.7-10.6,4.7l-48.2,53c-5,5.4-5,13.9,0,19.3l48.2,53c2.7,3,6.6,4.7,10.6,4.7h58.8
	V106.1z"/>
<path class="st5" d="M164.9,89.1h133c7.9,0,19.4,4.6,19.4,12.5v102.9c0,7.9-11.5,19.1-19.4,19.1h-133c-4,0-7.9-1.7-10.6-4.7
	l-48.2-53c-5-5.4-5-13.9,0-19.3l48.2-53C157,90.8,160.9,89.1,164.9,89.1z"/>
<path class="st6" d="M170,83.2h133c7.9,0,14.4,6.4,14.4,14.4v105.8c0,7.9-6.4,14.4-14.4,14.4H170c-4,0-7.9-1.7-10.6-4.7l-48.2-53
	c-5-5.4-5-13.9,0-19.3l48.2-53C162.1,84.8,165.9,83.2,170,83.2z"/>
<path class="st7" d="M199.6,185.4c-3.4-1.7-4.4-4.7-2.8-7.8l2.4-4.7c1.3-3.1,4.1-3.8,8-2c5.7,2.2,12,4,18.3,4
	c5.1,0,10.3-1.4,10.3-5.7c0-2.5-1.4-3.7-3.9-4.8c-2.4-1.1-6.5-2.1-11.6-3.4c-11.4-2.8-21.7-8.3-21.7-22c0-12.4,9-19.1,20.3-21.4
	v-7.1c0-3,2.7-5.1,5.7-5.1h5.4c3.1,0,5.9,2.2,5.9,5.1v7.1c4.7,0.7,9.3,2,13.3,3.5c3.4,1.1,4.8,3.5,3.8,7.5l-1.3,4.7
	c-1,3.4-4,4.8-7.9,3.2c-5.7-2.2-11.6-3.8-17.2-3.8c-6.3,0-10,1.3-10,5.2c0,5.1,5.7,6.5,16.8,9.2c11.7,2.8,21.6,7.2,21.6,20.3
	c0,13.4-8.5,19.9-20.6,22.1v6.8c0,3.1-2.8,5.2-5.9,5.2h-5.4c-3.1,0-5.9-2.2-5.9-5.2V190C210.9,189.6,204.8,188.2,199.6,185.4z"/>
<path class="st8" d="M199.6,180.9c-3.4-1.7-4.4-4.7-2.8-7.8l2.4-4.7c1.3-3.1,4.1-3.8,8-2c5.7,2.2,12,4,18.3,4
	c5.1,0,10.3-1.4,10.3-5.7c0-2.5-1.4-3.7-3.9-4.8c-2.4-1.1-6.5-2.1-11.6-3.4c-11.4-2.8-21.7-8.3-21.7-22c0-12.4,9-19.1,20.3-21.4V106
	c0-3,2.7-5.1,5.7-5.1h5.4c3.1,0,5.9,2.2,5.9,5.1v7.1c4.7,0.7,9.3,2,13.3,3.5c3.4,1.1,4.8,3.5,3.8,7.5l-1.3,4.7c-1,3.4-4,4.8-7.9,3.2
	c-5.7-2.2-11.6-3.8-17.2-3.8c-6.3,0-10,1.3-10,5.2c0,5.1,5.7,6.5,16.8,9.2c11.7,2.8,21.6,7.2,21.6,20.3c0,13.4-8.5,19.9-20.6,22.1
	v6.8c0,3.1-2.8,5.2-5.9,5.2h-5.4c-3.1,0-5.9-2.2-5.9-5.2v-6.2C210.9,185.1,204.8,183.7,199.6,180.9z"/>
</svg>
