<svg width="140" height="140" fill="none" xmlns="http://www.w3.org/2000/svg">
  <circle cx="70" cy="70" r="65" fill="#F5F5F5"/>
  <path d="M22 43.286C22 31.53 31.53 22 43.286 22h53.428C108.47 22 118 31.53 118 43.286v53.428C118 108.47 108.47 118 96.714 118H43.286C31.53 118 22 108.47 22 96.714V43.286z" fill="#58387A"/>
  <path fill-rule="evenodd" clip-rule="evenodd" d="M70.004 109.38c21.749 0 39.379-17.631 39.379-39.38 0-21.748-17.63-39.379-39.379-39.379-21.748 0-39.379 17.631-39.379 39.38 0 21.748 17.63 39.379 39.38 39.379z" fill="#42A40D"/>
  <path fill-rule="evenodd" clip-rule="evenodd" d="M29.594 70c0 22.337 18.107 40.444 40.443 40.444 22.337 0 40.444-18.107 40.444-40.443 0-22.337-18.107-40.444-40.444-40.444-22.336 0-40.443 18.107-40.443 40.444zm77.689 0c0 20.573-16.678 37.251-37.25 37.251-20.574 0-37.252-16.678-37.252-37.25 0-20.574 16.678-37.251 37.251-37.251 20.573 0 37.251 16.677 37.251 37.25z" fill="#fff"/>
  <path fill-rule="evenodd" clip-rule="evenodd" d="M84.035 79.924c0-4.729-1.697-8.485-8.065-12.013l-7.024-3.917c-3.877-2.182-4.872-3.356-4.944-5.223.072-2.71 1.887-4.237 6.244-4.178 3.78-.06 7.643.176 11.448.522h.26c.5.006.91-.464 1.04-1.044v-4.44c-.13-.497-.598-.908-1.3-1.044-1.405-.334-4.859-.745-8.065-1.045v-4.7c-.072-.517-.599-1.045-1.301-1.045h-5.204c-.709 0-1.235.528-1.3 1.044v4.962c-7.252 1.272-9.886 5.498-9.886 10.968 0 4.04 1.463 7.444 7.024 10.707l7.545 4.701c3.928 2.19 5.04 3.364 4.943 5.745.097 3.313-1.483 5.191-6.764 5.223-2.095-.032-7.949-.325-10.407-.522-.585-.097-1.112.373-1.04 1.045v4.178c-.072.667.455 1.078 1.04 1.306 2.166.36 4.566.77 7.545.783v5.223c.065.516.591 1.045 1.3 1.045h5.204c.702 0 1.229-.529 1.3-1.045v-5.484c7.773-1.513 10.407-6.854 10.407-11.752z" fill="#fff"/>
  <path fill-rule="evenodd" clip-rule="evenodd" d="M78 13h17c10.454 0 48.88 29 23.5 29H78c-5.523 0-10-4.477-10-10v-9c0-5.523 4.477-10 10-10zm0 2a8 8 0 00-8 8v9a8 8 0 008 8h40.5c21.424 0-15.016-25-23.5-25H78z" fill="#F5F5F5"/>
  <path d="M70 23a8 8 0 018-8h47a8 8 0 018 8v9a8 8 0 01-8 8H78a8 8 0 01-8-8v-9z" fill="#F0563D"/>
  <path d="M82.56 29.459v2.752h-1.83v-2.752H78v-1.822h2.73v-2.738h1.83v2.738h2.751v1.822H82.56zM89.96 32.816v-7.614c-.345.201-.702.356-1.07.465-.37.103-.788.18-1.255.228v-2.36a8.342 8.342 0 001.852-.532A9.696 9.696 0 0091.25 22h1.852v10.816h-3.143zM98.517 31.502c0 .448-.157.81-.472 1.085-.315.275-.75.413-1.306.413-.507 0-.922-.143-1.247-.428-.32-.29-.48-.647-.48-1.07 0-.432.158-.782.473-1.047.32-.27.748-.406 1.284-.406.521 0 .941.135 1.261.406.325.265.487.615.487 1.047zM107.769 27.437c0 1.815-.347 3.197-1.041 4.146-.688.945-1.696 1.417-3.024 1.417-1.358 0-2.374-.435-3.047-1.306-.67-.87-1.004-2.218-1.004-4.043 0-1.83.362-3.219 1.085-4.168.728-.95 1.778-1.424 3.15-1.424 2.587 0 3.881 1.793 3.881 5.378zm-3.099 0c0-1.052-.074-1.83-.221-2.331-.148-.502-.386-.753-.716-.753-.644 0-.966 1.078-.966 3.232 0 1.057.073 1.842.221 2.353.152.507.391.76.716.76.644 0 .966-1.087.966-3.26zM116.828 27.437c0 1.815-.346 3.197-1.04 4.146-.689.945-1.697 1.417-3.025 1.417-1.357 0-2.373-.435-3.047-1.306-.669-.87-1.003-2.218-1.003-4.043 0-1.83.361-3.219 1.084-4.168.728-.95 1.778-1.424 3.151-1.424 2.587 0 3.88 1.793 3.88 5.378zm-3.098 0c0-1.052-.074-1.83-.222-2.331-.147-.502-.386-.753-.715-.753-.645 0-.967 1.078-.967 3.232 0 1.057.074 1.842.222 2.353.152.507.391.76.715.76.645 0 .967-1.087.967-3.26zM125.888 27.437c0 1.815-.347 3.197-1.04 4.146-.689.945-1.697 1.417-3.025 1.417-1.358 0-2.373-.435-3.047-1.306-.669-.87-1.003-2.218-1.003-4.043 0-1.83.361-3.219 1.084-4.168.728-.95 1.778-1.424 3.15-1.424 2.587 0 3.881 1.793 3.881 5.378zm-3.099 0c0-1.052-.073-1.83-.221-2.331-.147-.502-.386-.753-.716-.753-.644 0-.966 1.078-.966 3.232 0 1.057.074 1.842.221 2.353.153.507.391.76.716.76.644 0 .966-1.087.966-3.26z" fill="#fff"/>
</svg>
